<svg width="72" height="61" viewBox="0 0 72 61" fill="none" xmlns="http://www.w3.org/2000/svg">
<path d="M60.9099 44.3173C62.8782 39.4647 63.6605 34.1815 63.1871 28.9385C62.7137 23.6956 60.9993 18.6558 58.1968 14.2683C55.3942 9.88075 51.5905 6.28187 47.1247 3.79234C42.6588 1.30282 37.6696 0 32.6017 0C27.5338 0 22.5446 1.30282 18.0788 3.79234C13.6129 6.28187 9.80924 9.88075 7.00666 14.2683C4.20409 18.6558 2.48971 23.6956 2.01631 28.9385C1.54292 34.1815 2.32521 39.4647 4.29348 44.3173H60.9099Z" fill="#FFD49C"/>
<path d="M11.0171 31.5152L12.127 25.2412H48.3654L52.1363 31.6422" fill="white"/>
<path d="M50.9314 32.4076L47.5746 26.7085H13.3047L12.4053 31.7798L9.62894 31.2508L10.9492 23.7743H49.1597L53.3411 30.8735L50.9314 32.4076Z" fill="#222F5A"/>
<path d="M42.582 31.219H39.6054V28.2848H42.582V31.219ZM36.6322 31.219H33.6658V28.2848H36.639L36.6322 31.219ZM30.7028 31.219H27.716V28.2848H30.7028V31.219ZM24.7563 31.219H21.7696V28.2848H24.7428L24.7563 31.219ZM18.8065 31.219H15.8198V28.2848H18.793L18.8065 31.219Z" fill="#222F5A"/>
<path d="M6.38422 43.3791L7.86403 32.538H56.1345L61.1577 43.5978" fill="white"/>
<path d="M59.8815 44.222L55.2418 34.0052H9.0893L7.78258 43.5872L4.98587 43.1746L6.63539 31.071H57.0305L62.4339 42.9701L59.8815 44.222Z" fill="#222F5A"/>
<path d="M66.1775 16.5162H63.3503C63.3211 15.5173 62.9188 14.5695 62.2285 13.8736C61.5382 13.1777 60.6142 12.7886 59.6524 12.7886C58.6907 12.7886 57.7667 13.1777 57.0764 13.8736C56.3861 14.5695 55.9837 15.5173 55.9546 16.5162H53.1307C53.1307 14.7185 53.818 12.9944 55.0414 11.7232C56.2648 10.4521 57.924 9.73792 59.6541 9.73792C61.3842 9.73792 63.0435 10.4521 64.2669 11.7232C65.4903 12.9944 66.1775 14.7185 66.1775 16.5162Z" fill="#222F5A"/>
<path d="M56.0428 16.5162H53.2156C53.1864 15.5173 52.7841 14.5695 52.0938 13.8736C51.4035 13.1777 50.4795 12.7886 49.5177 12.7886C48.556 12.7886 47.632 13.1777 46.9417 13.8736C46.2514 14.5695 45.849 15.5173 45.8199 16.5162H42.996C42.996 14.7185 43.6833 12.9944 44.9067 11.7232C46.1301 10.4521 47.7893 9.73792 49.5194 9.73792C51.2495 9.73792 52.9088 10.4521 54.1322 11.7232C55.3555 12.9944 56.0428 14.7185 56.0428 16.5162Z" fill="#222F5A"/>
<path d="M37.3212 9.82959H34.4973C34.4982 8.58932 34.9726 7.40007 35.8163 6.52274C36.66 5.64541 37.8042 5.15165 38.9978 5.14978V8.08392C38.5542 8.08943 38.1303 8.27522 37.8169 8.60151C37.5035 8.9278 37.3256 9.36864 37.3212 9.82959Z" fill="#222F5A"/>
<path d="M37.3721 9.82959H34.5482C34.5438 9.36864 34.3659 8.9278 34.0525 8.60151C33.7391 8.27522 33.3152 8.08943 32.8716 8.08392V5.14978C34.0652 5.15165 35.2094 5.64541 36.0531 6.52274C36.8968 7.40007 37.3712 8.58932 37.3721 9.82959Z" fill="#222F5A"/>
<path d="M44.4962 40.907L43.7394 43.813H10.6302L9.87335 40.907H1.76831L5.81065 59.4044H48.6709C53.723 59.4043 58.6126 57.5496 62.4765 54.1677C66.3404 50.7858 68.9303 46.0942 69.7888 40.9211L44.4962 40.907Z" fill="white"/>
<path d="M48.6709 60.8612H4.68381L0 39.4398H10.9527L11.696 42.3458H42.6431L43.4 39.4398H71.4485L71.1668 41.1538C70.2667 46.673 67.5125 51.6818 63.3936 55.29C59.2748 58.8983 54.0582 60.8723 48.6709 60.8612ZM6.94426 57.9234H48.6913C53.1193 57.9295 57.4235 56.4049 60.926 53.5898C64.4285 50.7747 66.9303 46.829 68.0375 42.3741H45.5688L44.8187 45.2977H9.54751L8.79064 42.3917H3.5502L6.94426 57.9234Z" fill="#222F5A"/>
<path d="M7.98285 48.7504L9.32011 54.8199H48.6913C51.1297 54.8245 53.5405 54.2839 55.76 53.2348C57.9795 52.1857 59.9559 50.6527 61.5548 48.7399L7.98285 48.7504Z" fill="#C0E5FC"/>
<path d="M12.8941 37.8599H42.1611" stroke="#222F5A" stroke-width="8.32" stroke-dasharray="8.76 8.76"/>
</svg>
