<svg width="71" height="72" viewBox="0 0 71 72" fill="none" xmlns="http://www.w3.org/2000/svg">
<path d="M66.055 45.7395C67.8199 45.7154 70.3199 44.1121 70.3132 42.1647V20.4271C70.3132 18.4728 68.9457 16.2123 67.2007 15.6102C61.2209 13.6078 54.7868 13.6078 48.807 15.6102C47.0653 16.2054 45.6945 18.4728 45.6945 20.4271V42.1647C45.6945 44.1052 48.1878 45.7189 49.9527 45.7395" fill="#C5E1F9"/>
<path d="M23.3461 25.052L15.7543 27.6289L20.8879 43.9588L28.4797 41.3819L23.3461 25.052Z" fill="#C0E5FC"/>
<path d="M40.8833 38.6724C40.8833 39.6931 40.592 40.6909 40.0463 41.5396C39.5005 42.3883 38.7248 43.0498 37.8172 43.4404C36.9097 43.831 35.911 43.9332 34.9476 43.7341C33.9841 43.535 33.0991 43.0434 32.4045 42.3217C31.7099 41.5999 31.2368 40.6803 31.0452 39.6792C30.8535 38.6781 30.9519 37.6404 31.3278 36.6974C31.7037 35.7543 32.3403 34.9483 33.1571 34.3812C33.9739 33.8142 34.9342 33.5115 35.9165 33.5115C37.2338 33.5115 38.4971 34.0552 39.4286 35.0231C40.36 35.9909 40.8833 37.3036 40.8833 38.6724Z" fill="#FFD49C"/>
<path d="M35.9298 45.251C34.6776 45.251 33.4536 44.8652 32.4124 44.1423C31.3713 43.4194 30.5599 42.392 30.0807 41.19C29.6015 39.9879 29.4761 38.6652 29.7204 37.3891C29.9647 36.113 30.5677 34.9408 31.4531 34.0208C32.3385 33.1008 33.4665 32.4742 34.6946 32.2204C35.9227 31.9666 37.1957 32.0968 38.3525 32.5948C39.5094 33.0927 40.4981 33.9358 41.1938 35.0177C41.8895 36.0995 42.2608 37.3714 42.2608 38.6725C42.2581 40.4164 41.5903 42.088 40.4036 43.3212C39.2168 44.5543 37.608 45.2482 35.9298 45.251ZM35.9298 34.9566C35.2225 34.9566 34.5311 35.1745 33.943 35.5828C33.3549 35.9911 32.8966 36.5715 32.6259 37.2505C32.3552 37.9295 32.2844 38.6766 32.4224 39.3974C32.5604 40.1182 32.901 40.7803 33.4011 41.3C33.9012 41.8197 34.5384 42.1736 35.2321 42.317C35.9258 42.4603 36.6448 42.3868 37.2983 42.1055C37.9517 41.8243 38.5102 41.348 38.9032 40.7369C39.2961 40.1258 39.5059 39.4074 39.5059 38.6725C39.505 37.6873 39.1279 36.7426 38.4575 36.046C37.787 35.3493 36.8779 34.9575 35.9298 34.9566Z" fill="#222F5A"/>
<path d="M35.9298 57.8057L24.824 42.7529L27.0127 41.012L35.9298 53.0989L44.8468 41.012L47.0355 42.7529L35.9298 57.8057Z" fill="#222F5A"/>
<path d="M41.3237 48.0549H30.5325V60.2246H41.3237V48.0549Z" fill="#FFD49C"/>
<path d="M42.7045 61.6558H29.1551V46.624H42.7045V61.6558ZM31.9233 58.7932H39.9595V49.5038H31.9233V58.7932Z" fill="#222F5A"/>
<path d="M34.208 59.9836H31.4531V70.2434H34.208V59.9836Z" fill="#222F5A"/>
<path d="M40.4065 59.9836H37.6516V70.2434H40.4065V59.9836Z" fill="#222F5A"/>
<path d="M16.0725 70.0676C17.1763 59.4822 18.2712 48.8945 19.3572 38.3044H7.00647C8.1102 48.8945 9.2051 59.4822 10.2912 70.0676H16.0725Z" fill="#C0E5FC"/>
<path d="M50.8401 23.7678V70.0676H65.1709V23.7678" fill="#C5E1F9"/>
<path d="M66.5484 71.4993H49.4626V23.7678H52.2176V68.6367H63.7935V23.7678H66.5484V71.4993Z" fill="#222F5A"/>
<path d="M59.3797 46.8442H56.6248V70.0679H59.3797V46.8442Z" fill="#222F5A"/>
<path d="M14.2613 54.4958H11.5064V70.0679H14.2613V54.4958Z" fill="#222F5A"/>
<path d="M22.7545 22.574C22.1618 20.6198 20.5559 18.3558 19.2976 17.7572C17.0857 16.756 15.1355 16.2571 13.1852 16.2571C11.2349 16.2571 9.28126 16.756 7.06938 17.7572C5.81112 18.3524 4.20519 20.6198 3.61249 22.574C2.69418 25.7416 1.78029 28.9081 0.870819 32.0735C1.78029 35.2388 2.69308 38.4053 3.60918 41.573C4.19857 43.5272 5.8045 45.7911 7.06276 46.3898C9.27463 47.3876 11.2249 47.8899 13.1785 47.8899C15.1288 47.8899 17.0824 47.3876 19.2943 46.3898C20.5493 45.7946 22.1585 43.5272 22.7479 41.573C23.6618 38.4076 24.5746 35.2423 25.4862 32.0769L22.7545 22.574Z" fill="#C0E5FC"/>
<path d="M7.79785 23.7678L1.68869 54.9121H24.675C22.6353 44.5284 20.5978 34.147 18.5625 23.7678" fill="#C0E5FC"/>
<path d="M26.3604 56.3401H0L6.45021 23.4824L9.14884 24.0536L3.37411 53.4775H22.9863L17.2116 24.0536L19.9135 23.4824L26.3604 56.3401Z" fill="#222F5A"/>
<path d="M64.7372 6.99829C64.7372 8.38257 64.3421 9.73575 63.6019 10.8867C62.8617 12.0376 61.8097 12.9346 60.5788 13.4642C59.348 13.9938 57.9936 14.1322 56.6871 13.8619C55.3805 13.5915 54.1805 12.9247 53.2387 11.9456C52.2969 10.9665 51.6557 9.71924 51.3963 8.36148C51.1368 7.00372 51.2706 5.59649 51.7809 4.31778C52.2911 3.03907 53.1549 1.94632 54.2629 1.17775C55.3709 0.409184 56.6733 -0.000679723 58.0055 8.46175e-07C58.8898 7.35016e-07 59.7654 0.181042 60.5824 0.532781C61.3993 0.88452 62.1416 1.40006 62.7667 2.04996C63.3918 2.69986 63.8876 3.47137 64.2257 4.32042C64.5638 5.16947 64.7376 6.07942 64.7372 6.99829Z" fill="#C0E5FC"/>
<path d="M19.9135 9.86096C19.9135 11.2452 19.5184 12.5984 18.7782 13.7493C18.038 14.9002 16.986 15.7972 15.7551 16.3268C14.5243 16.8563 13.17 16.9947 11.8634 16.7244C10.5569 16.4541 9.3568 15.7873 8.41503 14.8082C7.47326 13.8291 6.83208 12.5819 6.57258 11.2241C6.31309 9.86639 6.44693 8.45918 6.9572 7.18049C7.46746 5.90181 8.33121 4.80908 9.43921 4.04052C10.5472 3.27197 11.8497 2.86211 13.1819 2.86279C14.0662 2.86279 14.9418 3.04383 15.7587 3.39556C16.5757 3.7473 17.3179 4.26283 17.943 4.91272C18.5682 5.5626 19.064 6.3341 19.4021 7.18314C19.7402 8.03218 19.914 8.94211 19.9135 9.86096Z" fill="#C0E5FC"/>
</svg>
