<svg width="79" height="76" viewBox="0 0 79 76" fill="none" xmlns="http://www.w3.org/2000/svg">
<path d="M45.3905 16.3455C45.3905 19.5783 44.4679 22.7385 42.7393 25.4265C41.0108 28.1145 38.554 30.2095 35.6795 31.4467C32.8051 32.6838 29.6421 33.0075 26.5907 32.3768C23.5392 31.7461 20.7362 30.1894 18.5362 27.9034C16.3362 25.6175 14.838 22.705 14.231 19.5343C13.624 16.3636 13.9355 13.0771 15.1262 10.0903C16.3168 7.10358 18.3331 4.55077 20.92 2.75471C23.5069 0.958644 26.5483 0 29.6596 0C31.7254 0 33.771 0.422788 35.6795 1.24422C37.5881 2.06566 39.3223 3.26966 40.783 4.78747C42.2438 6.30529 43.4025 8.1072 44.193 10.0903C44.9836 12.0734 45.3905 14.1989 45.3905 16.3455Z" fill="#FFD49C"/>
<path d="M75.7273 9.72803H32.657V18.2911H38.6482V21.0981L39.1847 20.9596L45.1352 22.5669L51.0782 20.9596L57.0286 22.5669L62.9716 20.9596L68.9184 22.5669L74.2323 21.1288L78.7247 18.2911V13.6231L75.7273 9.72803Z" fill="#FFD49C"/>
<path d="M26.6622 16.3455C26.6622 16.9617 26.4863 17.564 26.1568 18.0763C25.8273 18.5886 25.3589 18.9878 24.811 19.2235C24.2631 19.4591 23.6602 19.5206 23.0786 19.4001C22.4971 19.2796 21.963 18.9825 21.544 18.5466C21.1249 18.1106 20.8397 17.5552 20.7245 16.9508C20.6093 16.3463 20.6692 15.7199 20.8966 15.1508C21.124 14.5818 21.5088 14.0956 22.0022 13.7538C22.4956 13.412 23.0755 13.23 23.6685 13.2307C24.4628 13.2317 25.2243 13.5603 25.7856 14.1444C26.3469 14.7284 26.6622 15.52 26.6622 16.3455Z" fill="white"/>
<path d="M23.6685 21.0593C22.771 21.0601 21.8935 20.7843 21.1469 20.2667C20.4004 19.7492 19.8183 19.0133 19.4743 18.152C19.1304 17.2907 19.04 16.3427 19.2147 15.428C19.3893 14.5134 19.8211 13.6731 20.4554 13.0134C21.0898 12.3538 21.8981 11.9044 22.7783 11.7222C23.6585 11.54 24.5709 11.6331 25.4001 11.9898C26.2293 12.3465 26.9381 12.9507 27.4367 13.726C27.9354 14.5013 28.2016 15.4128 28.2016 16.3453C28.2006 17.5946 27.7228 18.7924 26.873 19.6761C26.0232 20.5599 24.8708 21.0573 23.6685 21.0593ZM23.6685 14.8304C23.3799 14.8296 23.0977 14.9178 22.8574 15.0838C22.6172 15.2498 22.4297 15.4862 22.3188 15.7629C22.2079 16.0397 22.1785 16.3444 22.2343 16.6385C22.2902 16.9326 22.4287 17.2029 22.6325 17.4152C22.8362 17.6274 23.096 17.7721 23.379 17.8309C23.6619 17.8896 23.9552 17.8599 24.2219 17.7453C24.4885 17.6308 24.7164 17.4366 24.8768 17.1874C25.0372 16.9382 25.1228 16.6451 25.1228 16.3453C25.1218 15.9445 24.9684 15.5604 24.696 15.2766C24.4235 14.9928 24.0542 14.8324 23.6685 14.8304Z" fill="#222F5A"/>
<path d="M78.351 14.3574H43.8918V17.5566H78.351V14.3574Z" fill="#222F5A"/>
<path d="M49.5573 35.4019H46.4785C46.4783 35.012 46.4273 34.624 46.3268 34.2484L49.2872 33.3948C49.4639 34.0481 49.5547 34.7232 49.5573 35.4019Z" fill="#222F5A"/>
<path d="M45.2647 32.345C44.7576 31.8155 44.1282 31.4302 43.4366 31.2261L44.2766 28.15C45.4723 28.4988 46.5617 29.1608 47.4406 30.0725L45.2647 32.345ZM40.961 31.0646H38.0339V27.8655H40.961V31.0646Z" fill="#222F5A"/>
<path d="M35.0994 27.8655H33.56V31.0647H35.0994V27.8655Z" fill="#222F5A"/>
<path d="M33.8819 27.8655H32.3425V31.0647H33.8819V27.8655Z" fill="#222F5A"/>
<path d="M29.0712 31.0647H25.8037V27.8655H29.0712V31.0647ZM22.5324 31.0647H19.2612V27.8655H22.5324V31.0647ZM15.9936 31.0647H12.7224V27.8655H15.9936V31.0647ZM9.45111 31.0647H7.9709C7.23815 31.0663 6.5086 30.9641 5.8024 30.7609L6.62392 27.6848C7.06249 27.8114 7.51572 27.8748 7.9709 27.8732H9.45111V31.0647ZM2.32762 28.6999C1.35488 27.7236 0.63236 26.5103 0.225731 25.17L3.16394 24.2087C3.41486 25.0399 3.86277 25.7922 4.46652 26.3966L2.32762 28.6999ZM3.02332 21.6363L0 21.0288C0.260987 19.6496 0.848565 18.3598 1.70964 17.2759L4.08167 19.3138C3.54807 19.9842 3.18426 20.7826 3.02332 21.6363ZM6.08364 17.7911L4.95129 14.8226C5.91442 14.4191 6.94353 14.2128 7.98201 14.2151H8.72211V17.4335H7.98201C7.33288 17.4235 6.68808 17.545 6.08364 17.7911Z" fill="#222F5A"/>
<path d="M13.5439 14.2151H12.0045V17.4146H13.5439V14.2151Z" fill="#222F5A"/>
<path d="M30.433 47.7371C30.4335 48.0134 30.3815 48.2871 30.2799 48.5425C30.1784 48.798 30.0293 49.03 29.8412 49.2254C29.6532 49.4208 29.4298 49.5757 29.184 49.6813C28.9382 49.7868 28.6748 49.8408 28.4088 49.8403H24.3383C23.8063 49.8332 23.2984 49.6084 22.925 49.2146C22.5516 48.8208 22.3427 48.2899 22.3437 47.7371C22.3437 47.1792 22.557 46.6443 22.9366 46.2498C23.3162 45.8554 23.831 45.6338 24.3679 45.6338H28.4384C28.9753 45.6338 29.4901 45.8554 29.8698 46.2498C30.2494 46.6443 30.4626 47.1792 30.4626 47.7371H30.433Z" fill="#C5E1F9"/>
<path d="M75.1981 47.7371C75.1981 48.0136 75.1456 48.2874 75.0437 48.5428C74.9417 48.7983 74.7923 49.0303 74.6039 49.2257C74.4156 49.421 74.192 49.5759 73.946 49.6813C73.7 49.7868 73.4364 49.8408 73.1702 49.8403H69.1182C68.8525 49.8403 68.5895 49.7859 68.3441 49.6802C68.0987 49.5744 67.8758 49.4194 67.6882 49.2241C67.5005 49.0287 67.3517 48.7968 67.2504 48.5417C67.1491 48.2865 67.0972 48.0131 67.0977 47.7371C67.0972 47.461 67.1491 47.1876 67.2504 46.9325C67.3517 46.6773 67.5005 46.4454 67.6882 46.2501C67.8758 46.0547 68.0987 45.8997 68.3441 45.794C68.5895 45.6882 68.8525 45.6338 69.1182 45.6338H73.1702C73.7074 45.6338 74.2227 45.8553 74.6029 46.2496C74.983 46.6439 75.1971 47.1789 75.1981 47.7371Z" fill="#C5E1F9"/>
<path d="M65.2696 39.5547C65.0952 39.1274 64.8081 38.7599 64.4415 38.4946C64.0749 38.2293 63.6436 38.077 63.1973 38.0552H34.3222C33.8757 38.0776 33.4442 38.2301 33.0771 38.4953C32.71 38.7605 32.4221 39.1276 32.2463 39.5547L27.9278 51.7243C27.8477 51.8917 27.8124 52.0785 27.8257 52.2649C27.839 52.4514 27.9004 52.6307 28.0033 52.7841C28.1062 52.9374 28.247 53.0592 28.4108 53.1365C28.5746 53.2139 28.7554 53.2441 28.9343 53.2239H68.6001C68.779 53.2441 68.9598 53.2139 69.1236 53.1365C69.2874 53.0592 69.4282 52.9374 69.5311 52.7841C69.634 52.6307 69.6954 52.4514 69.7086 52.2649C69.7219 52.0785 69.6867 51.8917 69.6066 51.7243L65.2696 39.5547Z" fill="white"/>
<path d="M68.6001 54.8274H28.9343C28.5066 54.8475 28.0809 54.7548 27.697 54.5578C27.3132 54.3609 26.9835 54.0661 26.7389 53.701C26.4943 53.3358 26.3427 52.9123 26.2982 52.4698C26.2538 52.0274 26.3178 51.5804 26.4845 51.1707L30.803 39.0008C31.0874 38.2665 31.5719 37.6345 32.197 37.1823C32.8222 36.7302 33.5608 36.4775 34.3222 36.4553H63.2084C63.9692 36.4782 64.707 36.7312 65.3315 37.1834C65.9559 37.6355 66.4398 38.2671 66.7239 39.0008L71.0461 51.1707C71.2119 51.5808 71.2752 52.0278 71.2301 52.4702C71.185 52.9125 71.0329 53.3358 70.7881 53.7008C70.5433 54.0657 70.2136 54.3603 69.8298 54.5573C69.4459 54.7543 69.0204 54.8472 68.5927 54.8274H68.6001ZM29.6041 51.6244H67.9229L63.8523 40.1082C63.7863 39.9889 63.6956 39.8864 63.5868 39.8079C63.478 39.7295 63.3539 39.6771 63.2232 39.6545H34.3222C34.1914 39.6765 34.0671 39.7288 33.9582 39.8073C33.8493 39.8858 33.7588 39.9886 33.6931 40.1082L29.6041 51.6244Z" fill="#222F5A"/>
<path d="M29.2081 54.2583H26.9693C24.85 54.2583 23.1319 56.0435 23.1319 58.2457V71.8653C23.1319 74.0675 24.85 75.8528 26.9693 75.8528H29.2081C31.3275 75.8528 33.0456 74.0675 33.0456 71.8653V58.2457C33.0456 56.0435 31.3275 54.2583 29.2081 54.2583Z" fill="#C5E1F9"/>
<path d="M70.5577 54.2583H68.3226C66.2032 54.2583 64.4851 56.0435 64.4851 58.2457V71.8653C64.4851 74.0675 66.2032 75.8528 68.3226 75.8528H70.5577C72.677 75.8528 74.3951 74.0675 74.3951 71.8653V58.2457C74.3951 56.0435 72.677 54.2583 70.5577 54.2583Z" fill="#C5E1F9"/>
<path d="M69.1552 49.7325C68.3845 49.0982 67.443 48.7287 66.4612 48.675H31.0658C30.084 48.7287 29.1426 49.0982 28.3719 49.7325L24.3013 53.4853C23.6114 54.1907 23.1997 55.1382 23.1467 56.1423V66.8357C23.1477 67.2596 23.3102 67.6659 23.5987 67.9657C23.8872 68.2654 24.2782 68.4343 24.6861 68.4353H72.8557C73.2637 68.4343 73.6547 68.2654 73.9432 67.9657C74.2317 67.6659 74.3942 67.2596 74.3951 66.8357V56.1539C74.3422 55.1497 73.9305 54.2022 73.2406 53.4969L69.1552 49.7325Z" fill="white"/>
<path d="M72.8557 70.0461H24.6713C23.857 70.0421 23.0773 69.7034 22.5025 69.104C21.9277 68.5046 21.6046 67.6932 21.6036 66.847V56.1538C21.657 54.6937 22.2587 53.3133 23.2799 52.3087L27.3505 48.5559C28.3971 47.6621 29.6972 47.1501 31.051 47.0986H66.4464C67.8001 47.1509 69.1 47.6628 70.1469 48.5559L74.2175 52.3087C75.235 53.3157 75.835 54.6949 75.8901 56.1538V66.847C75.8893 67.6872 75.5707 68.4935 75.0031 69.0919C74.4354 69.6903 73.6642 70.033 72.8557 70.0461ZM31.0658 50.2862C30.4599 50.3377 29.8802 50.5656 29.3932 50.9437L25.3041 54.6927C24.9491 55.0975 24.7274 55.6093 24.6713 56.1538V66.847H72.8557V56.1538C72.8014 55.6088 72.5795 55.0964 72.2229 54.6927L68.1524 50.9437C67.664 50.5654 67.0831 50.3376 66.476 50.2862H31.0658Z" fill="#222F5A"/>
<path d="M63.7895 68.447V65.3287C63.7895 64.6924 63.5462 64.0821 63.1131 63.6322C62.6801 63.1822 62.0928 62.9294 61.4803 62.9294H36.8386C36.2262 62.9294 35.6389 63.1822 35.2058 63.6322C34.7728 64.0821 34.5295 64.6924 34.5295 65.3287V68.447H63.7895Z" fill="white"/>
<path d="M65.3215 70.0464H32.9901V65.3285C32.9901 64.2679 33.3956 63.2508 34.1173 62.5008C34.839 61.7509 35.8179 61.3296 36.8386 61.3296H61.4729C62.4936 61.3296 63.4725 61.7509 64.1943 62.5008C64.916 63.2508 65.3215 64.2679 65.3215 65.3285V70.0464ZM36.0874 66.8473H62.2611V65.3285C62.2611 65.1164 62.18 64.9129 62.0357 64.7629C61.8913 64.613 61.6956 64.5287 61.4914 64.5287H36.8386C36.6345 64.5287 36.4387 64.613 36.2944 64.7629C36.15 64.9129 36.0689 65.1164 36.0689 65.3285L36.0874 66.8473Z" fill="#222F5A"/>
<path d="M30.9363 62.1296H26.8287V65.3284H30.9363V62.1296Z" fill="#222F5A"/>
<path d="M71.2274 62.1296H67.1199V65.3284H71.2274V62.1296Z" fill="#222F5A"/>
<path d="M58.5162 57.4614C58.5162 58.5687 57.9019 59.4607 57.147 59.4607H40.38C39.6399 59.4607 39.0108 58.5687 39.0108 57.4614C39.0108 56.358 39.6251 55.4622 40.38 55.4622H57.147C57.8871 55.4622 58.5162 56.358 58.5162 57.4614Z" fill="#C5E1F9"/>
<path d="M35.8654 57.4614C35.1253 56.358 33.9485 55.4622 33.238 55.4622H27.8464C27.336 55.4622 26.8466 55.6728 26.4857 56.0477C26.1249 56.4227 25.9221 56.9312 25.9221 57.4614C25.9221 57.9917 26.1249 58.5002 26.4857 58.8751C26.8466 59.2501 27.336 59.4607 27.8464 59.4607H34.6405C36.0578 59.4607 36.6055 58.5764 35.8654 57.4614Z" fill="#FFD49C"/>
<path d="M61.6616 57.4614C62.4017 56.358 63.5785 55.4622 64.289 55.4622H69.6843C70.1947 55.4622 70.6841 55.6728 71.045 56.0477C71.4059 56.4227 71.6086 56.9312 71.6086 57.4614C71.6086 57.9917 71.4059 58.5002 71.045 58.8751C70.6841 59.2501 70.1947 59.4607 69.6843 59.4607H62.8865C61.4692 59.4607 60.9215 58.5764 61.6616 57.4614Z" fill="#FFD49C"/>
</svg>
